<?xml version="1.0" standalone="no"?>
<!DOCTYPE svg PUBLIC "-//W3C//DTD SVG 20010904//EN"
 "http://www.w3.org/TR/2001/REC-SVG-20010904/DTD/svg10.dtd">
<svg version="1.0" xmlns="http://www.w3.org/2000/svg"
 width="512.000000pt" height="512.000000pt" viewBox="0 0 512.000000 512.000000"
 preserveAspectRatio="xMidYMid meet">
<metadata>
Created by potrace 1.14, written by Peter Selinger 2001-2017
</metadata>
<g transform="translate(0.000000,512.000000) scale(0.100000,-0.100000)"
fill="#000000" stroke="none">
<path d="M181 4920 c-5 -11 -7 -4636 -2 -4745 1 -20 8 -20 2379 -19 1308 0
2382 3 2387 6 12 7 13 4753 2 4765 -4 4 -1077 7 -2383 7 -2103 1 -2377 -1
-2383 -14z m4266 -2375 l0 -1881 -1881 0 -1881 1 -1 1875 c-1 1031 0 1878 2
1881 2 3 848 5 1882 5 l1879 1 0 -1882z"/>
<path d="M2500 3897 c-3 -3 -31 -8 -63 -11 -122 -12 -307 -90 -414 -174 -193
-154 -332 -407 -379 -692 -2 -14 -6 -35 -9 -46 -28 -123 -27 -566 1 -719 66
-366 190 -597 398 -740 56 -39 201 -105 229 -105 10 0 26 -4 35 -9 9 -5 40
-12 67 -16 28 -4 61 -8 75 -10 14 -3 75 -5 135 -5 118 -1 230 17 335 52 36 12
67 23 70 23 3 1 32 15 66 32 178 92 324 261 419 488 25 59 63 182 70 222 3 19
7 38 9 42 2 3 7 29 10 56 4 28 9 64 11 80 16 112 21 363 10 475 -18 186 -37
293 -71 405 -32 104 -92 228 -149 310 -41 57 -122 143 -175 183 -68 52 -225
121 -310 137 -14 3 -36 7 -50 11 -33 8 -314 18 -320 11z m227 -427 c107 -32
188 -93 240 -180 48 -82 94 -230 107 -350 4 -30 9 -73 12 -94 7 -43 7 -394 0
-436 -2 -14 -7 -50 -10 -80 -48 -371 -220 -557 -503 -544 -126 6 -205 37 -280
112 -57 56 -93 116 -127 216 -91 262 -91 791 -1 1046 41 115 118 217 202 267
93 54 258 74 360 43z"/>
</g>
</svg>
